<?xml version="1.0" encoding="utf-8"?>
<svg width="64px" height="64px" viewBox="0 0 64 64" version="1.1" xmlns:xlink="http://www.w3.org/1999/xlink" xmlns="http://www.w3.org/2000/svg">
  <defs>
    <linearGradient x1="0.50000787" y1="-0.006220579" x2="0.50000787" y2="0.98327446" id="gradient_1">
      <stop offset="0%" stop-color="#6DC7FF" />
      <stop offset="100%" stop-color="#E6ABFF" />
    </linearGradient>
    <linearGradient x1="0.5" y1="-0.019230776" x2="0.5" y2="1.0224423" id="gradient_2">
      <stop offset="0%" stop-color="#1A6DFF" />
      <stop offset="100%" stop-color="#C822FF" />
    </linearGradient>
    <path d="M0 0L64 0L64 64L0 64L0 0Z" id="path_1" />
    <clipPath id="mask_1">
      <use xlink:href="#path_1" />
    </clipPath>
  </defs>
  <g id="Github-icon">
    <path d="M0 0L64 0L64 64L0 64L0 0Z" id="Background" fill="none" fill-rule="evenodd" stroke="none" />
    <g clip-path="url(#mask_1)">
      <path d="M25.008 56.007C25.005 55.639 25.002 54.045 24.999 52.553L24.996 51.003C18.267 51.918 16.638 47.223 16.62 47.173C15.686 44.805 14.409 44.128 14.354 44.1L14.23 44.028C13.767 43.712 12.539 42.871 12.888 41.765C13.203 40.768 14.424 40.665 14.979 40.683C18.053 40.898 19.609 43.661 19.673 43.778C21.242 46.467 23.637 46.189 25.182 45.622C25.326 44.934 25.549 44.302 25.841 43.744C20.885 42.865 15.27 40.229 15.27 30.64C15.27 28.007 16.09 25.68 17.711 23.711C17.349 22.505 16.937 20.045 18.157 16.946L18.331 16.504L18.783 16.36C19.199 16.223 21.471 15.736 26.142 18.793C28.07 18.299 30.111 18.044 32.216 18.034C34.331 18.044 36.374 18.299 38.306 18.793C42.973 15.735 45.24 16.228 45.657 16.36L46.108 16.505L46.282 16.945C47.507 20.043 47.095 22.504 46.733 23.711C48.351 25.674 49.171 28.002 49.171 30.64C49.171 40.231 43.55 42.859 38.583 43.727C39.146 44.792 39.451 46.129 39.451 47.605C39.451 49.288 39.444 54.809 39.436 56.007L37.436 55.993C37.444 54.797 37.451 49.285 37.451 47.604C37.451 45.162 36.508 44.082 36.101 43.73L34.371 42.233L36.645 41.98C41.85 41.402 47.17 39.601 47.17 30.639C47.17 28.309 46.393 26.278 44.86 24.603L44.43 24.134L44.672 23.547C44.838 23.146 45.566 21.105 44.629 18.256C43.871 18.301 42.061 18.658 39.045 20.703L38.661 20.962L38.216 20.839C36.353 20.321 34.278 20.043 32.215 20.033C30.163 20.043 28.091 20.321 26.231 20.839L25.786 20.962L25.403 20.703C22.384 18.659 20.57 18.299 19.809 18.254C18.874 21.105 19.603 23.146 19.769 23.547L20.011 24.134L19.582 24.603C18.046 26.284 17.268 28.315 17.268 30.639C17.268 39.597 22.578 41.409 27.772 42L30.024 42.256L28.316 43.746C27.944 44.071 27.286 44.858 27.062 46.473L26.987 47.022L26.481 47.249C25.16 47.841 20.642 49.411 17.933 44.764C17.918 44.739 17.389 43.819 16.431 43.207C17.077 43.846 17.864 44.88 18.499 46.494C18.565 46.684 19.856 50.116 25.779 48.833L26.985 48.571L26.997 52.549C27 54.036 27.003 55.625 27.006 55.993L25.008 56.007L25.008 56.007Z" id="Shape" fill="url(#gradient_1)" stroke="none" />
      <path d="M32 58C17.663 58 6 46.337 6 32C6 17.663 17.663 6 32 6C46.337 6 58 17.663 58 32C58 46.337 46.337 58 32 58L32 58ZM32 8C18.767 8 8 18.767 8 32C8 45.233 18.767 56 32 56C45.233 56 56 45.233 56 32C56 18.767 45.233 8 32 8L32 8Z" id="Shape" fill="url(#gradient_2)" fill-rule="evenodd" stroke="none" />
    </g>
  </g>
</svg>