<?xml version="1.0" encoding="utf-8"?>
<svg width="64px" height="64px" viewBox="0 0 64 64" version="1.1" xmlns:xlink="http://www.w3.org/1999/xlink" xmlns="http://www.w3.org/2000/svg">
  <defs>
    <linearGradient x1="0.5" y1="-0.05190909" x2="0.5" y2="1.0473182" id="gradient_1">
      <stop offset="0%" stop-color="#6DC7FF" />
      <stop offset="100%" stop-color="#E6ABFF" />
    </linearGradient>
    <linearGradient x1="0.49999988" y1="-0.0519228" x2="0.49999988" y2="1.0473411" id="gradient_2">
      <stop offset="0%" stop-color="#6DC7FF" />
      <stop offset="100%" stop-color="#E6ABFF" />
    </linearGradient>
    <linearGradient x1="0.5" y1="-0.53977275" x2="0.5" y2="1.0693183" id="gradient_3">
      <stop offset="0%" stop-color="#6DC7FF" />
      <stop offset="100%" stop-color="#E6ABFF" />
    </linearGradient>
    <linearGradient x1="0.5" y1="-0.010000005" x2="0.5" y2="1.01" id="gradient_4">
      <stop offset="0%" stop-color="#1A6DFF" />
      <stop offset="100%" stop-color="#C822FF" />
    </linearGradient>
    <path d="M0 0L64 0L64 64L0 64L0 0Z" id="path_1" />
    <clipPath id="mask_1">
      <use xlink:href="#path_1" />
    </clipPath>
  </defs>
  <g id="Linkedin-icon">
    <path d="M0 0L64 0L64 64L0 64L0 0Z" id="Background" fill="none" fill-rule="evenodd" stroke="none" />
    <g clip-path="url(#mask_1)">
      <path d="M22 48L22 26L16 26L16 48L22 48L22 48Z" id="Shape" fill="url(#gradient_1)" fill-rule="evenodd" stroke="none" />
      <path d="M19.358 23C21.87 23 23.434 21.526 23.434 19.446C23.387 17.32 21.87 15.797 19.406 15.797C16.941 15.797 15.33 17.272 15.33 19.398C15.33 21.478 16.893 23 19.311 23L19.358 23L19.358 23L19.358 23Z" id="Shape" fill="url(#gradient_2)" fill-rule="evenodd" stroke="none" />
      <path d="M26.946 48L34 48L34 35.911C34 35.263 34.122 34.616 34.313 34.153C34.833 32.858 36.19 31.518 38.18 31.518C40.787 31.518 42.001 33.506 42.001 36.419L42.001 48L48.001 48L48.001 35.588C48.001 28.931 44.916 26.09 40.175 26.09C36.289 26.09 35.051 28 34.103 30L34 30L34 26L26.946 26C27.041 28 26.771 48 26.771 48L26.946 48L26.946 48Z" id="Shape" fill="url(#gradient_3)" fill-rule="evenodd" stroke="none" />
      <path d="M50 57L14 57C10.141 57 7 53.859 7 50L7 14C7 10.141 10.141 7 14 7L50 7C53.859 7 57 10.141 57 14L57 50C57 53.859 53.859 57 50 57L50 57ZM14 9C11.243 9 9 11.243 9 14L9 50C9 52.757 11.243 55 14 55L50 55C52.757 55 55 52.757 55 50L55 14C55 11.243 52.757 9 50 9L14 9L14 9Z" id="Shape" fill="url(#gradient_4)" fill-rule="evenodd" stroke="none" />
    </g>
  </g>
</svg>